<svg xmlns="http://www.w3.org/2000/svg" width="464.38651mm" height="100mm" viewBox="0 0 464.38651 100"><defs><linearGradient id="a" x1="0" x2="1" y1="0" y2="0" gradientTransform="scale(22.6112) rotate(78.21 -4.47 5.946)" gradientUnits="userSpaceOnUse" spreadMethod="pad"><stop offset="0" style="stop-opacity:1;stop-color:#58595b"/><stop offset="0.24942668" style="stop-opacity:1;stop-color:#9fa1a4"/><stop offset="0.625173" style="stop-opacity:1;stop-color:#9fa1a4"/><stop offset="0.84546658" style="stop-opacity:1;stop-color:#9fa1a4"/><stop offset="1" style="stop-opacity:1;stop-color:#9fa1a4"/></linearGradient><linearGradient id="b" x1="0" x2="1" y1="0" y2="0" gradientTransform="scale(77.1707) rotate(-2.129 55.68 -11.79)" gradientUnits="userSpaceOnUse" spreadMethod="pad"><stop offset="0" style="stop-opacity:1;stop-color:#00386c"/><stop offset="0.279941" style="stop-opacity:1;stop-color:#0062a3"/><stop offset="0.495612" style="stop-opacity:1;stop-color:#1b75bc"/><stop offset="0.74027804" style="stop-opacity:1;stop-color:#1b75bc"/><stop offset="0.999634" style="stop-opacity:1;stop-color:#92c6eb"/><stop offset="1" style="stop-opacity:1;stop-color:#92c6eb"/></linearGradient><linearGradient id="c" x1="0" x2="1" y1="0" y2="0" gradientTransform="matrix(-77.04566 0 0 -77.04566 114.192 187.662)" gradientUnits="userSpaceOnUse" spreadMethod="pad"><stop offset="0" style="stop-opacity:1;stop-color:#ed193a"/><stop offset="0.6" style="stop-opacity:1;stop-color:#ed193a"/><stop offset="0.87121572" style="stop-opacity:1;stop-color:#ed193a"/><stop offset="0.999981" style="stop-opacity:1;stop-color:#fbb03f"/><stop offset="1" style="stop-opacity:1;stop-color:#fbb03f"/></linearGradient><clipPath id="d" clipPathUnits="userSpaceOnUse"><path d="M0 841.89h595.28V0H0Z"/></clipPath></defs><path d="M36.97 210.578v27.667l25.782-5.854c8.718-1.561 8.718-10.032 8.718-10.032v-19.7z" style="fill:url(#a);stroke:none;stroke-width:1.49399" transform="translate(-36.97 -138.245)"/><path d="M45.177 154.08c-4.103 1.23-8.206 3.878-8.206 10.426 0 4.461 3.664 7.85 8.86 8.199l39.906 2.296 20.578-4.773c8.755-2.057 8.264-9.623 8.264-9.623l.025-22.36z" style="fill:url(#b);stroke:none;stroke-width:1.49399" transform="translate(-36.97 -138.245)"/><path d="m36.97 210.817 67.037-15.326c7.896-2.103 10.062-5.115 10.062-9.622 0 0 1.13-8.824-8.532-9.91l-59.644-3.414c-5.195-.351-8.922-3.805-8.922-8.039z" style="fill:url(#c);stroke:none;stroke-width:1.49399" transform="translate(-36.97 -138.245)"/><g clip-path="url(#d)" transform="matrix(1.49399 0 0 -1.49399 -227.49 834.257)"><path d="m0 0 2.546.129v-3.688l2.86.248V.273l2.293.118v-9.156l-2.293-.331v4.014l-2.86-.297V-9.51L0-9.878Z" style="fill:#fff;fill-opacity:1;fill-rule:nonzero;stroke:none" transform="translate(161.553 528.311)"/><path d="M0 0h-.023l-.995-3.521 1.916.205zm-1.264 1.735 2.495.126 2.778-8.206-2.091-.301-.55 1.753-2.87-.355-.624-1.979-2.213-.321z" style="fill:#fff;fill-opacity:1;fill-rule:nonzero;stroke:none" transform="translate(174.48 527.167)"/><path d="M0 0c-.232-.107-.49-.215-.778-.322a4.853 4.853 0 0 0-1.071-.257 3.969 3.969 0 0 0-1.312.026 2.896 2.896 0 0 0-1.232.543c-.374.279-.682.676-.921 1.189-.24.514-.362 1.166-.362 1.954 0 .722.099 1.365.298 1.926a4.04 4.04 0 0 0 .819 1.404c.346.377.753.664 1.218.865.461.197.954.307 1.483.334a3.85 3.85 0 0 0 .947-.07c.304-.065.604-.144.904-.242l-.132-1.697a2.927 2.927 0 0 1-.792.36 2.551 2.551 0 0 1-.836.08 1.839 1.839 0 0 1-.83-.253 2.135 2.135 0 0 1-.64-.59 2.876 2.876 0 0 1-.419-.865 3.83 3.83 0 0 1-.146-1.071c0-.396.054-.75.168-1.054.108-.308.261-.557.453-.756.193-.2.419-.336.687-.416a1.99 1.99 0 0 1 .864-.066c.276.037.55.109.819.224.265.111.511.238.732.376z" style="fill:#fff;fill-opacity:1;fill-rule:nonzero;stroke:none" transform="translate(184.386 521.848)"/><path d="M0 0a9.897 9.897 0 0 0-.686-.297 4.21 4.21 0 0 0-.946-.234 3.335 3.335 0 0 0-1.155.039 2.54 2.54 0 0 0-1.084.518c-.325.264-.596.641-.807 1.12-.212.484-.318 1.096-.318 1.834 0 .675.085 1.278.262 1.8.172.521.412.956.718 1.312.303.352.66.622 1.07.805a3.51 3.51 0 0 0 1.304.311c.29.013.569-.011.839-.07.267-.061.532-.137.796-.229l-.115-1.594a2.504 2.504 0 0 1-.7.34 2.041 2.041 0 0 1-.739.079 1.541 1.541 0 0 1-.729-.232 1.917 1.917 0 0 1-.565-.553 2.654 2.654 0 0 1-.367-.808 3.696 3.696 0 0 1-.129-1.002c0-.372.05-.701.147-.991a1.99 1.99 0 0 1 .399-.71c.169-.188.371-.319.605-.4.235-.079.488-.1.76-.065.245.032.486.097.722.203.236.102.453.222.65.349z" style="fill:#fff;fill-opacity:1;fill-rule:nonzero;stroke:none" transform="translate(190.082 522.592)"/><path d="m0 0 .426.035C.564.045.697.07.819.11c.123.04.229.105.321.19a.875.875 0 0 1 .208.318c.055.13.081.285.081.467 0 .186-.026.335-.081.452a.695.695 0 0 1-.208.281.737.737 0 0 1-.321.141 1.53 1.53 0 0 1-.393.023L0 1.957Zm-1.684 3.245 2.002.085c.94.04 1.62-.118 2.048-.469.427-.349.639-.916.639-1.699 0-.705-.203-1.269-.612-1.702-.413-.435-.997-.689-1.758-.762L0-1.359v-2.512l-1.684-.201z" style="fill:#fff;fill-opacity:1;fill-rule:nonzero;stroke:none" transform="translate(192.59 526.55)"/><path d="M0 0h-3.171v-18.053H0V-9.5h3.564v2.781H0Z" style="fill:#58524f;fill-opacity:1;fill-rule:nonzero;stroke:none" transform="translate(229.513 524.786)"/><path d="M0 0h-3.22v-7.871h14.383v2.705H0Z" style="fill:#58524f;fill-opacity:1;fill-rule:nonzero;stroke:none" transform="translate(218.737 508.274)"/><path d="M221.348 524.913H212.7v-2.625h8.648z" style="fill:#58524f;fill-opacity:1;fill-rule:nonzero;stroke:none"/><path d="M0 0c.169.377.393.713.664 1 .27.285.584.515.932.681a2.5 2.5 0 0 0 1.079.249c.356 0 .711-.086 1.053-.249.348-.166.663-.396.933-.681.272-.289.494-.624.664-1 .164-.373.248-.768.248-1.176 0-.41-.083-.801-.248-1.162a3.277 3.277 0 0 0-.664-.964 2.903 2.903 0 0 0-.928-.665 2.554 2.554 0 0 0-2.141 0 2.943 2.943 0 0 0-.934.67A3.31 3.31 0 0 0 0-2.338 2.88 2.88 0 0 0 0 0m5.027-6.528a5.639 5.639 0 0 1 1.926 1.21 5.624 5.624 0 0 1 1.326 1.785 5.15 5.15 0 0 1 .491 2.228 4.82 4.82 0 0 1-.601 2.344c-.279.507-.626.96-1.032 1.356h3.053v2.65H-4.969v-2.65h3.184a5.653 5.653 0 0 1-1.023-1.358 4.914 4.914 0 0 1-.585-2.342c0-.793.157-1.54.462-2.224a5.324 5.324 0 0 1 1.296-1.784A5.694 5.694 0 0 1 .283-6.528a6.543 6.543 0 0 1 2.392-.431 6.5 6.5 0 0 1 2.352.431" style="fill:#58524f;fill-opacity:1;fill-rule:nonzero;stroke:none" transform="translate(214.361 516.354)"/><path d="M0 0c.146.786.266 1.649.352 2.563.086.774.146 1.568.182 2.356.035.781.052 1.492.052 2.115v.256H-14.34V4.532h11.59c.015-.367.001-.793-.039-1.273a36.284 36.284 0 0 0-.206-1.842 51.001 51.001 0 0 0-.334-1.865 21.16 21.16 0 0 0-.306-1.358h-14.503v-2.653h9.69v-3.522h-6.098v-2.653h11.937v-6.098H.612v8.751h-5.685v3.522h9.586v2.653H-.378C-.249-1.262-.124-.657 0 0" style="fill:#58524f;fill-opacity:1;fill-rule:nonzero;stroke:none" transform="translate(251.224 516.695)"/><path d="M0 0c.196-.357.434-.713.71-1.062.395-.5.845-.977 1.328-1.408.472-.455.969-.868 1.477-1.226a8.76 8.76 0 0 1 1.57-.89l.168-.073 1.95 2.171-.305.147c-.907.437-1.705.95-2.373 1.526A6.906 6.906 0 0 0 2.922 1.18a7.774 7.774 0 0 0-.901 2.127c-.2.767-.302 1.615-.302 2.519v1.883H-1.71V6.007c0-.953-.104-1.831-.313-2.609a8.097 8.097 0 0 0-.917-2.147 9.357 9.357 0 0 0-1.95-2.352 19.029 19.029 0 0 0-2.741-1.975l-.281-.17 2.07-2.039.163.086a14.74 14.74 0 0 1 1.867 1.156c.626.451 1.227.955 1.784 1.495.49.474.938.97 1.33 1.476C-.423-.719-.189-.359 0 0" style="fill:#58524f;fill-opacity:1;fill-rule:nonzero;stroke:none" transform="translate(264.3 516.534)"/><path d="M273.702 510.014h3.169v14.771h-3.169z" style="fill:#58524f;fill-opacity:1;fill-rule:nonzero;stroke:none"/><path d="M0 0h11.187v-6.46h3.221v9.111H0Z" style="fill:#58524f;fill-opacity:1;fill-rule:nonzero;stroke:none" transform="translate(262.334 506.605)"/><path d="m0 0-.045-3.521h-4.228L-4.34 0Zm6.092-3.521H2.919L2.963 0h2.794v2.655h-15.908V0h2.822l.068-3.521h-3.147v-2.678h16.5z" style="fill:#58524f;fill-opacity:1;fill-rule:nonzero;stroke:none" transform="translate(293.128 521.458)"/><path d="M286.664 505.829h8.406v-2.85h-8.406zm-7.07 4.908h9.688v-2.309h-5.839v-8.077h14.925v8.077h-5.709v2.309h9.584v2.68h-22.649z" style="fill:#58524f;fill-opacity:1;fill-rule:nonzero;stroke:none"/><path d="M0 0h3.565v2.781H0V9.5h-3.171V-8.553H0Z" style="fill:#58524f;fill-opacity:1;fill-rule:nonzero;stroke:none" transform="translate(322.526 515.286)"/><path d="M0 0h-3.221v-7.871h14.383v2.705H0Z" style="fill:#58524f;fill-opacity:1;fill-rule:nonzero;stroke:none" transform="translate(311.752 508.274)"/><path d="M0 0c-.916 0-1.658.324-2.268.99-.607.662-.916 1.496-.916 2.479 0 .976.303 1.788.919 2.478.609.682 1.351 1.012 2.265 1.012.914 0 1.66-.33 2.279-1.014.625-.69.928-1.5.928-2.476 0-.981-.311-1.815-.926-2.477C1.664.324.916 0 0 0m2.487-2.374a6.482 6.482 0 0 1 2.056 1.345A6.37 6.37 0 0 1 5.941.987c.342.773.514 1.605.514 2.482 0 .856-.172 1.682-.514 2.453a6.385 6.385 0 0 1-1.398 2.017A6.7 6.7 0 0 1 2.49 9.296c-1.57.667-3.465.654-5.006 0a6.385 6.385 0 0 1-2.027-1.357 6.242 6.242 0 0 1-1.388-2.021 6.164 6.164 0 0 1-.499-2.449c0-.877.169-1.709.499-2.48a6.238 6.238 0 0 1 1.385-2.016 6.177 6.177 0 0 1 2.032-1.347A6.549 6.549 0 0 1 0-2.857c.875 0 1.711.162 2.487.483" style="fill:#58524f;fill-opacity:1;fill-rule:nonzero;stroke:none" transform="translate(309.482 514.293)"/><path d="M0 0c.246-.355.528-.711.842-1.064.422-.474.891-.926 1.39-1.339.475-.422.981-.804 1.506-1.137a12.845 12.845 0 0 1 1.557-.844l.182-.08 1.732 2.235-.275.139A15.01 15.01 0 0 0 4.851-.833C4.215-.371 3.646.141 3.166.688A7.349 7.349 0 0 0 1.99 2.635c-.279.689-.419 1.466-.419 2.309v1.142h4.443v2.677H-6.275V6.086h4.443V4.893c0-.825-.147-1.606-.434-2.321A10.623 10.623 0 0 0-3.381.5a11.429 11.429 0 0 0-1.781-1.833 13.53 13.53 0 0 0-2.093-1.433l-.297-.162 2.127-2.128.165.085c.578.297 1.176.684 1.772 1.149.59.461 1.154.959 1.681 1.484.415.434.804.89 1.156 1.354.25.332.468.662.651.984" style="fill:#58524f;fill-opacity:1;fill-rule:nonzero;stroke:none" transform="translate(333.565 514.936)"/><path d="M0 0h5.116v-9.868h3.17V8.185h-3.17V2.732H0Z" style="fill:#58524f;fill-opacity:1;fill-rule:nonzero;stroke:none" transform="translate(338.347 516.601)"/><path d="M0 0h-3.22v-7.871h14.667v2.705H0Z" style="fill:#58524f;fill-opacity:1;fill-rule:nonzero;stroke:none" transform="translate(335.78 508.274)"/><path d="M0 0h-3.195v-17.923H0v7.492h3.46v2.703H0Z" style="fill:#58524f;fill-opacity:1;fill-rule:nonzero;stroke:none" transform="translate(369.086 524.76)"/><path d="m0 0-.153-1.879A35.846 35.846 0 0 0-.41-3.766a27.745 27.745 0 0 0-.332-1.701l-.073-.313h3.261l.045.199c.121.543.246 1.253.365 2.115.122.86.227 1.783.312 2.752.068.81.13 1.622.183 2.434.05.811.078 1.556.078 2.212v.254H-8.165V1.43h8.24C.067.988.044.51 0 0" style="fill:#58524f;fill-opacity:1;fill-rule:nonzero;stroke:none" transform="translate(359.198 519.9)"/><path d="M0 0h-3.222v-7.535h14.617v2.705H0Z" style="fill:#58524f;fill-opacity:1;fill-rule:nonzero;stroke:none" transform="translate(358.027 507.938)"/><path d="M0 0c.989.053 1.922.115 2.773.184.864.068 1.583.148 2.137.234l.215.033v2.598l-.285-.035a71.607 71.607 0 0 0-3.758-.335 134.115 134.115 0 0 0-4.381-.224v5.34h-3.168v-5.4h-4.263V-.233l4.775.026c.904 0 1.881.019 2.902.054A82.06 82.06 0 0 1 0 0" style="fill:#58524f;fill-opacity:1;fill-rule:nonzero;stroke:none" transform="translate(360.059 510.297)"/><path d="M0 0a61.74 61.74 0 0 0-3.695-.129L-6.28-.152v5.42h7.493v9.46h-10.74v-2.731h7.517V7.869h-7.543V-2.86h4.768c.192-.005.396-.009.615-.009.432 0 .913.014 1.445.037.793.033 1.614.076 2.463.129a96.9 96.9 0 0 1 2.526.232c.819.086 1.56.192 2.204.314l.208.039V.535L4.381.488C2.881.248 1.406.084 0 0" style="fill:#58524f;fill-opacity:1;fill-rule:nonzero;stroke:none" transform="translate(384.176 508.817)"/><path d="M389.971 500.403h3.195v24.356h-3.195zM416.393 524.786h-3.169v-18.053h3.169z" style="fill:#58524f;fill-opacity:1;fill-rule:nonzero;stroke:none"/><path d="M0 0c-.919 0-1.67.324-2.296.993-.624.663-.939 1.495-.939 2.476 0 .974.308 1.785.941 2.476.626.682 1.378 1.014 2.294 1.014.896 0 1.633-.33 2.252-1.014.624-.69.93-1.5.93-2.476 0-.981-.314-1.815-.928-2.477C1.635.324.898 0 0 0m2.486-2.374a6.214 6.214 0 0 1 2.032 1.345A6.435 6.435 0 0 1 5.916.987c.34.771.512 1.605.512 2.482a6.04 6.04 0 0 1-.512 2.453A6.446 6.446 0 0 1 4.52 7.937a6.413 6.413 0 0 1-2.032 1.359c-1.57.667-3.465.654-5.006 0A6.707 6.707 0 0 1-4.57 7.939a6.187 6.187 0 0 1-1.387-2.021 6.13 6.13 0 0 1-.5-2.449A6.223 6.223 0 0 1-4.57-1.029a6.511 6.511 0 0 1 2.055-1.345A6.543 6.543 0 0 1 0-2.857a6.47 6.47 0 0 1 2.486.483" style="fill:#58524f;fill-opacity:1;fill-rule:nonzero;stroke:none" transform="translate(402.938 514.293)"/><path d="M0 0h-3.223v-7.871h14.668v2.705H0Z" style="fill:#58524f;fill-opacity:1;fill-rule:nonzero;stroke:none" transform="translate(405.543 508.274)"/><path d="M419.09 510.737h22.651v2.602H419.09Z" style="fill:#58524f;fill-opacity:1;fill-rule:nonzero;stroke:none"/><path d="M0 0a16.22 16.22 0 0 1 2.114.773c.776.342 1.537.743 2.264 1.192.629.384 1.205.797 1.711 1.224.387.327.702.665.943 1.01a5.38 5.38 0 0 1 .977-1.06 10.71 10.71 0 0 1 1.783-1.221A14.288 14.288 0 0 1 12.026.733a14.9 14.9 0 0 1 2.131-.735l.16-.04 1.756 2.268-.365.098c-.744.201-1.54.494-2.367.864-.822.373-1.582.806-2.26 1.296a8.178 8.178 0 0 0-1.603 1.415c-.34.398-.551.817-.63 1.247h5.883v2.68H-.71v-2.68h5.906c-.076-.384-.267-.765-.566-1.135a8.48 8.48 0 0 0-1.443-1.38A12.237 12.237 0 0 0 .809 3.229a15.953 15.953 0 0 0-2.468-.905l-.383-.101L-.159-.043z" style="fill:#58524f;fill-opacity:1;fill-rule:nonzero;stroke:none" transform="translate(423.417 514.21)"/><path d="M0 0c0-.773-.3-1.409-.919-1.939-.622-.534-1.374-.804-2.237-.804-.873 0-1.586.262-2.18.799-.588.531-.873 1.167-.873 1.944 0 .773.297 1.413.909 1.953.613.541 1.361.815 2.22.815.892 0 1.613-.265 2.207-.812C-.285 1.416 0 .775 0 0m1.375 3.838a6.9 6.9 0 0 1-2 1.154c-1.518.57-3.39.57-4.907-.001a6.87 6.87 0 0 1-1.999-1.153 5.38 5.38 0 0 1-1.357-1.724A4.757 4.757 0 0 1-9.379 0c0-.742.166-1.454.491-2.116a5.35 5.35 0 0 1 1.357-1.722A6.536 6.536 0 0 1-5.529-4.98a7.112 7.112 0 0 1 2.449-.416c.871 0 1.695.139 2.453.416a6.56 6.56 0 0 1 2.002 1.142 5.515 5.515 0 0 1 1.367 1.721c.336.662.506 1.373.506 2.117 0 .742-.17 1.453-.506 2.116a5.542 5.542 0 0 1-1.367 1.722" style="fill:#58524f;fill-opacity:1;fill-rule:nonzero;stroke:none" transform="translate(433.635 504.456)"/><path d="M0 0h5.27v-2.171h3.17v18.725H5.27V2.523H0Z" style="fill:#58524f;fill-opacity:1;fill-rule:nonzero;stroke:none" transform="translate(454.486 508.206)"/><path d="M0 0v3.951h-3.222v-6.656h14.667V0Z" style="fill:#58524f;fill-opacity:1;fill-rule:nonzero;stroke:none" transform="translate(451.662 503.108)"/><path d="M0 0v3.474c1.347.05 2.667.13 3.928.236 1.339.112 2.413.222 3.19.325l.221.028v2.528l-.287-.037a56.393 56.393 0 0 0-2.43-.245c-.946-.076-1.965-.14-3.03-.193a103.203 103.203 0 0 0-6.316-.206h-4.645V3.36l5.628.028h.47V0Z" style="fill:#58524f;fill-opacity:1;fill-rule:nonzero;stroke:none" transform="translate(451.687 507.79)"/><path d="M0 0c0 .707.266 1.293.811 1.789.549.504 1.199.748 1.984.748.821 0 1.492-.244 2.053-.748.55-.498.82-1.082.82-1.789 0-.723-.27-1.316-.82-1.813-.561-.503-1.232-.748-2.053-.748-.785 0-1.435.245-1.984.747C.266-1.318 0-.724 0 0m-1.432-3.754A5.93 5.93 0 0 1 .473-4.891a6.721 6.721 0 0 1 2.322-.402c.818 0 1.604.137 2.336.402.732.27 1.385.651 1.939 1.133a5.482 5.482 0 0 1 1.301 1.666A4.6 4.6 0 0 1 8.862 0c0 .727-.165 1.418-.493 2.054a5.537 5.537 0 0 1-1.303 1.657 6.767 6.767 0 0 1-1.931 1.115c-1.467.553-3.217.553-4.664-.002a6.378 6.378 0 0 1-1.899-1.117 5.368 5.368 0 0 1-1.287-1.654A4.561 4.561 0 0 1-3.193 0c0-.742.161-1.445.476-2.088a5.314 5.314 0 0 1 1.285-1.666" style="fill:#58524f;fill-opacity:1;fill-rule:nonzero;stroke:none" transform="translate(447.242 519.44)"/></g></svg>