<svg xmlns="http://www.w3.org/2000/svg" width="696.76166pt" height="300pt" viewBox="0 0 696.76165 300"><path fill="#7c7a7a" d="M-157.04 320.531c0-3.646-1.083-7.122-2.98-10.113h7.843v-8.942h-18.616v-6.935c0-1.984-1.247-2.23-2.815-2.23h-7.79v9.165h-18.687v8.942h7.919c-1.908 2.99-2.903 6.467-2.903 10.113 0 11.02 8.117 19.062 18.98 19.062 10.844 0 19.049-8.042 19.049-19.062m-27.588 0c0-6.215 2.978-9.937 8.117-10.113h.749c5.056.176 8.2 3.898 8.2 10.113 0 5.718-3.32 10.195-8.528 10.195-5.39 0-8.538-4.477-8.538-10.195M-175.26 361.866v-14.55c0-1.907-1.246-2.235-2.814-2.235h-7.966v20.63c0 3.862 2.511 7.175 6.73 7.175h45.468V364.1h-39.264c-1.82 0-2.153-.655-2.153-2.235M61.452 361.866l-.006-15.966c0-1.902-1.246-2.235-2.82-2.235h-7.954v22.046c0 3.862 2.505 7.175 6.725 7.175h45.473V364.1H63.606c-1.826 0-2.154-.655-2.154-2.235M136.997 361.866l-.006-15.966c0-1.902-1.241-2.235-2.81-2.235h-7.959v22.046c0 3.862 2.505 7.175 6.725 7.175h45.473V364.1h-39.27c-1.82 0-2.154-.655-2.154-2.235M298.187 361.866V345.9c0-1.902-1.246-2.235-2.815-2.235h-7.965v22.046c0 3.862 2.511 7.175 6.725 7.175h45.473V364.1h-39.264c-1.82 0-2.154-.655-2.154-2.235M456.11 364.103c-1.826 0-2.154-.661-2.154-2.236v-11.47c0-1.908-1.247-2.242-2.815-2.242h-7.96v17.557c0 3.863 2.506 7.17 6.725 7.17h46.761v-8.78zM-135.497 298.648c0-1.902-1.246-2.236-2.815-2.236h-7.79l-.011 52.941h10.616v-23.445h11.6v-8.948h-11.6zM-56.631 313.646v-12.091c0-1.996-1.58-3.325-3.734-3.325h-48.546v8.785h41.587v6.876c0 2.336-.415 6.374-1.106 10.424h-48.218v8.778h28.25v12.49h-21.116v8.778h42.606v19.348h10.686v-25.23c0-1.826-1.07-2.897-3.64-2.897h-17.85v-12.489h29.66v-8.778h-9.85c.843-4.571 1.27-8.463 1.27-10.67M-.114 340.719h21.21v-42.073c0-1.902-1.241-2.236-2.816-2.236h-7.79v12.513h-31.813v-10.277c0-1.902-1.253-2.236-2.821-2.236h-7.784v38.03c0 3.528 2.511 6.279 6.11 6.279h15.105v17.692h-28.794v8.773H29.09v-8.773H-.114Zm-19.307-8.761c-1.984 0-1.902-.831-1.902-2.406v-11.857H10.49v14.263zM76.927 302.044c.082-2.236-1.82-3.81-3.886-3.81H39.653v8.948h25.346c-1.89 9.686-11.178 19.161-27.91 24.72l3.886 8.335c19.547-5.718 35.29-19.8 35.952-38.193M76.483 324.719h14.116v24.639h10.604v-50.712c0-1.902-1.235-2.235-2.815-2.235h-7.79v19.278H76.484ZM176.756 298.648c0-1.902-1.235-2.236-2.821-2.236h-7.772v52.941h10.593V324.58h11.6v-8.867h-11.6zM256.929 339.662h-7.795v7.35H219.8l.006-5.109c0-1.908-1.235-2.241-2.803-2.241h-7.801v28.167c0 3.149 3.06 5.882 5.881 5.882h44.654l.012-31.808c0-1.908-1.247-2.241-2.82-2.241m-7.796 24.603h-27.589c-1.656 0-1.744-.661-1.744-2.154v-6.642h29.333zM337.946 298.648c0-1.902-1.246-2.236-2.82-2.236h-7.79v52.947h10.61zM351.865 345.207h16.24c-3.096 3.295-4.84 7.467-4.84 12.015 0 10.64 9.487 19.272 23.732 19.272s23.737-8.633 23.737-19.272c0-4.548-1.75-8.72-4.846-12.015h16.235v-8.603h-70.258zm35.132 22.783c-8.065 0-13.344-4.822-13.344-10.774 0-5.946 5.28-10.769 13.344-10.769 8.059 0 13.337 4.823 13.337 10.769 0 5.952-5.278 10.774-13.337 10.774M136.072 322.236c4.934 8.17 12.882 13.741 18.81 17.405l5.139-7.046c-6.35-3.869-18.47-13.958-18.47-28.508v-5.355c0-1.907-1.236-2.323-2.892-2.323H130.6v7.678c0 14.55-12.114 24.64-18.47 28.508l5.139 7.046c5.94-3.664 13.882-9.235 18.803-17.405M296.287 323.767c4.776 7.433 13.929 13.695 18.933 16.253l5.01-7.456c-6.269-3.822-18.313-11.904-18.611-25.476h15.608v-8.855h-42.33v8.855h16.059c-.305 13.572-12.343 21.654-18.611 25.476l5.01 7.456c5.003-2.558 14.157-8.82 18.932-16.253M235.165 320.851h13.97v14.093h10.604v-36.127c0-1.908-1.158-2.406-2.815-2.406h-7.79v15.41h-13.729c-1.738-8.709-9.077-15.246-19.43-15.246-11.91 0-19.834 8.633-19.834 19.272 0 10.634 7.924 19.272 19.834 19.272 9.955 0 17.112-6.057 19.19-14.268m-28.343-5.004c0-5.788 3.617-10.481 9.153-10.481 5.525 0 9.153 4.693 9.153 10.481s-3.628 10.47-9.153 10.47c-5.536 0-9.153-4.682-9.153-10.47M365.927 316.618c0 9.047 8.427 16.386 21.069 16.386 12.64 0 21.068-7.339 21.068-16.386 0-2.85-.837-5.525-2.376-7.86h11.061v-8.597h-24.322v-5.408c-.088-1.908-1.241-2.241-2.897-2.241h-7.784v7.649h-24.498v8.597h11.06c-1.538 2.335-2.381 5.01-2.381 7.86m21.069 8.129c-6.35 0-10.517-3.635-10.517-8.13 0-4.488 4.167-8.123 10.517-8.123s10.51 3.635 10.51 8.124c0 4.494-4.16 8.129-10.51 8.129M468.828 353.644h26.178v-54.995c0-1.908-1.235-2.236-2.815-2.236h-7.784v48.411h-15.579z" style="stroke-width:5.85242" transform="translate(200.093 -76.494)"/><path fill="#7c7a7a" d="M448.621 344.495h10.605V333.51h19.47v-8.603h-9.62c2.451-3.067 3.827-6.924 3.827-11.114 0-9.984-7.76-18.09-19.419-18.09-11.658 0-19.424 8.106-19.424 18.09 0 4.19 1.381 8.047 3.828 11.114h-8.434v8.603h19.167zm4.863-39.937c5.396 0 8.937 4.138 8.937 9.235 0 5.103-3.54 9.241-8.937 9.241-5.401 0-8.936-4.138-8.936-9.24 0-5.098 3.535-9.236 8.936-9.236M-92.83 253.115l-53.649-77.105h-.638v77.105h-52.976V96.347h52.976v66.98h.638l50.097-66.98h60.444l-56.254 73.483 59.168 83.285z" style="stroke-width:5.85242" transform="translate(200.093 -76.494)"/><path fill="#ec6305" d="M42.371 178.498v74.619h-53.614V96.348h53.614v56.692h33.821c41.927 0 64.675 21.116 64.675 59.806v40.27H87.224v-50.892c0-15.614-8.433-23.726-25.353-23.726zM174.388 96.347h53.637v156.769h-53.637z" style="stroke-width:5.85242" transform="translate(200.093 -76.494)"/><path fill="#7c7a7a" d="M443.031 96.347h53.638v156.769H443.03zM261.542 96.346v156.769h87.435c41.927 0 64.663-21.14 64.663-59.789v-37.162c0-38.685-22.736-59.818-64.663-59.818zm53.626 131.258V121.675h19.5c16.89 0 25.358 8.135 25.358 23.72v58.483c0 15.609-8.468 23.726-25.358 23.726z" style="stroke-width:5.85242" transform="translate(200.093 -76.494)"/><path fill="#ec6305" d="M145.334 107.763c0 17.282-14.01 31.287-31.28 31.287-17.277 0-31.282-14.005-31.282-31.287 0-17.276 14.005-31.27 31.281-31.27 17.27 0 31.281 13.994 31.281 31.27" style="stroke-width:5.85242" transform="translate(200.093 -76.494)"/></svg>